<svg xmlns="http://www.w3.org/2000/svg" viewBox="0 0 318 318" width="318" height="318">
	<style>
		tspan { white-space:pre }
		.shp0 { fill: #ffffff } 
	</style>
	<g id="Layer">
		<path id="Layer" fill-rule="evenodd" class="shp0" d="M249.5 28.3C261.7 36.6 281.9 56.8 289.8 68.7C307.8 95.6 316.9 123.3 317.8 154.2C318.3 171.4 317.3 180.7 313.4 196.2C305.7 226.9 293.4 248.6 271 271.1C257.7 284.5 247.1 292.3 231.5 300.3C197.3 317.8 157.7 322.4 120.8 313C54.2 296.3 7.3 241.2 0.9 172.7C-6.9 88.5 55 11.8 139 1.5C178.3 -3.3 216.4 5.9 249.5 28.3ZM103.2 54C81.6 54 82 53.8 82 65.2L82 72.8L75.5 73.2C70 73.5 68.6 74 65.9 76.5C59.7 82.3 60 78.4 60 166.7C60 243.3 60.1 247.7 61.9 251.6C63 254 65.2 256.6 67.3 257.9C70.8 260 71.4 260.1 104.2 259.8C137.4 259.5 137.5 259.5 140.6 257.1C146.1 253 146.2 252.6 146.1 213.7L146 178L170.9 178L171.2 213.9C171.5 248.6 171.6 250 173.6 252.7C174.7 254.2 177.2 256.5 179 257.7C182.3 260 182.7 260 215 260C247.3 260 247.7 260 251 257.8C252.8 256.5 255.1 253.9 256.1 252C257.9 248.7 258 244.4 258 166.8C258 75.2 258.4 80.7 250.7 75.6C247.6 73.7 245.3 73 241.5 73L236.4 73L236.5 66.7C236.7 60.2 235.7 56.1 233.7 54.8C233 54.4 224.5 54 214.8 54C193 54 193 54 193 65.4L193 72.8L187 73.2C180.6 73.7 177.2 75.4 173.6 80.4C171.6 83 171.5 84.6 171.2 119.6L170.9 156L146 156L146 82.7L143.6 79.5C140.4 75.3 135.4 73 129.6 73L125 73L125 65.5C125 59.3 124.6 57.6 123 56C121.1 54.1 119.7 54 103.2 54Z" />
		<path id="Layer" fill-rule="evenodd" class="shp0" d="M132.8 86.4C133.7 87.1 134 104.1 134 166C134 209.4 133.7 245.5 133.4 246.4C132.9 247.8 129.3 248 103.4 248C76.5 248 74 247.9 73.2 246.2C72.5 245 72.3 96.9 73 86.8C73 86.4 86.2 85.9 102.3 85.8C118.3 85.6 132.1 85.9 132.8 86.4ZM103.1 90C86.8 90 80.1 90.3 79.2 91.2C78.3 92.1 78 110.2 78 166.7C78 239.1 78 241 79.9 242C81.1 242.6 90.6 243 103.9 243C125.5 243 125.9 243 127.4 240.8C128.8 238.8 129 230.1 129 166.5C129 102.9 128.8 94.2 127.4 92.2C125.9 90 125.5 90 103.1 90Z" />
		<path id="Layer" fill-rule="evenodd" class="shp0" d="M215.1 86C241.2 86 244.9 86.2 245.4 87.6C245.7 88.5 246 124.2 246 167C246 236.4 245.8 245 244.4 246.4C243.1 247.8 239 248 215 248C199.7 248 186.5 247.7 185.6 247.4C184.2 246.8 184 238.8 184 167.1C184 123.2 184.3 87 184.7 86.7C185 86.3 198.7 86 215.1 86ZM214.5 90C197.1 90 193.1 90.3 191.2 91.6L189 93.1L189 239.9L191.2 241.4C194.5 243.7 234.5 243.7 237.8 241.4L240 239.9L240 93.1L237.8 91.6C235.9 90.3 231.9 90 214.5 90Z" />
	</g>
</svg>